<?xml version="1.0" encoding="UTF-8" standalone="no"?>
<!-- Created with Inkscape (http://www.inkscape.org/) -->

<svg
   version="1.1"
   id="svg1"
   width="1024"
   height="1024"
   viewBox="0 0 1024 1024"
   sodipodi:docname="icon.svg"
   inkscape:version="1.4.2 (ebf0e940, 2025-05-08)"
   xmlns:inkscape="http://www.inkscape.org/namespaces/inkscape"
   xmlns:sodipodi="http://sodipodi.sourceforge.net/DTD/sodipodi-0.dtd"
   xmlns="http://www.w3.org/2000/svg"
   xmlns:svg="http://www.w3.org/2000/svg">
  <defs
     id="defs1" />
  <sodipodi:namedview
     id="namedview1"
     pagecolor="#ffffff"
     bordercolor="#111111"
     borderopacity="1"
     inkscape:showpageshadow="0"
     inkscape:pageopacity="0"
     inkscape:pagecheckerboard="1"
     inkscape:deskcolor="#d1d1d1"
     inkscape:zoom="0.48175354"
     inkscape:cx="515.82392"
     inkscape:cy="600.92967"
     inkscape:window-width="1336"
     inkscape:window-height="832"
     inkscape:window-x="0"
     inkscape:window-y="34"
     inkscape:window-maximized="0"
     inkscape:current-layer="g1" />
  <g
     inkscape:groupmode="layer"
     inkscape:label="Image"
     id="g1">
    <path
       style="fill:#000000"
       d="m -2.0757502,516.1515 c 0,-512.0000039 0,-512.0000039 512.0000002,-512.0000039 511.99995,0 511.99995,0 511.99995,512.0000039 0,512 0,512 -511.99995,512 -512.0000002,0 -512.0000002,0 -512.0000002,-512 z M 530.412,831.12547 c 7.69326,-0.5546 18.71826,-1.7023 24.5,-2.5504 5.78174,-0.8481 15.01225,-2.4629 20.51225,-3.5885 5.5,-1.1256 15.4,-3.6105 22,-5.522 6.6,-1.9115 18.3,-5.9678 26,-9.0141 7.7,-3.0463 18.78819,-7.9388 24.64042,-10.8723 5.85224,-2.9334 14.62724,-7.6787 19.5,-10.5452 4.87277,-2.8665 12.82699,-7.8691 17.67604,-11.1171 4.84905,-3.2479 14.29905,-10.3211 21,-15.7181 6.70095,-5.397 17.07647,-14.6885 23.05673,-20.6478 5.98025,-5.9592 14.58376,-15.3493 19.1189,-20.8667 4.53514,-5.5175 10.77831,-13.5646 13.87371,-17.8825 3.0954,-4.318 8.58734,-12.7625 12.20432,-18.7656 3.61698,-6.0032 9.64758,-17.3204 13.40135,-25.1493 3.75376,-7.8289 8.8661,-19.6539 11.36074,-26.2778 2.49464,-6.6238 6.10373,-17.2164 8.0202,-23.539 1.91646,-6.3226 4.61591,-16.8781 5.99876,-23.4566 1.38286,-6.57853 3.23737,-16.86364 4.12113,-22.8558 0.88376,-5.99216 1.8572,-16.56716 2.16319,-23.5 0.55617,-12.60104 0.55549,-12.60607 -2.08822,-15.364 -1.45452,-1.51735 -3.72689,-3.46798 -5.04973,-4.33474 -2.03731,-1.3349 -6.4269,-1.57314 -28.70135,-1.55776 -19.06052,0.0132 -27.37055,0.38043 -30.20068,1.33475 -2.14747,0.72412 -4.78143,2.49863 -5.85326,3.94337 -1.41199,1.90324 -2.58461,7.01563 -4.25717,18.5603 -1.26963,8.76343 -3.53512,21.08138 -5.03444,27.37321 -1.49932,6.29184 -4.70818,17.28967 -7.1308,24.43967 -2.42263,7.15 -7.73516,19.75 -11.80563,28 -4.07047,8.25 -10.46386,19.5849 -14.20753,25.1886 -3.74368,5.6038 -9.59912,13.7223 -13.01211,18.0413 -3.41299,4.3189 -11.06299,12.7417 -17,18.7172 -5.93701,5.9755 -15.29457,14.4718 -20.79457,18.8807 -5.5,4.4088 -13.825,10.4907 -18.5,13.5153 -4.675,3.0246 -13.45,8.0968 -19.5,11.2716 -6.05,3.1748 -16.28439,7.835 -22.74308,10.3561 -6.4587,2.521 -17.72474,6.1167 -25.03565,7.9905 -7.31092,1.8737 -18.45153,4.2185 -24.75692,5.2106 -8.82366,1.3883 -17.10767,1.7952 -35.96435,1.7662 -20.66734,-0.032 -26.53366,-0.3864 -37.5,-2.267 -7.15,-1.2261 -17.93455,-3.5952 -23.96566,-5.2646 -6.03111,-1.6694 -15.25611,-4.6331 -20.5,-6.5859 -5.24389,-1.9529 -15.60934,-6.6312 -23.03434,-10.3964 -7.425,-3.7651 -17.55,-9.4791 -22.5,-12.6977 -4.95,-3.2186 -13.5,-9.5261 -19,-14.0167 -5.5,-4.4905 -13.375,-11.2943 -17.5,-15.1195 -6.58272,-6.1042 -7.31654,-7.1275 -6,-8.3666 0.825,-0.7765 11.0916,-9.1792 22.81467,-18.6727 11.98597,-9.7064 21.72404,-18.3377 22.25,-19.7211 0.51443,-1.353 0.93533,-3.9987 0.93533,-5.8792 0,-2.3641 -0.84853,-4.309 -2.75,-6.3031 -2.41322,-2.5309 -9.73058,-4.9999 -59.75,-20.1606 -31.35,-9.5021 -63.6336,-19.2872 -71.74133,-21.7446 -10.8686,-3.2944 -15.63375,-4.3008 -18.13825,-3.8309 -1.8683,0.3505 -4.86833,1.6388 -6.66672,2.8629 -1.79839,1.2241 -4.21118,3.4985 -5.36175,5.0542 -2.08333,2.817 -2.09163,3.1594 -2.01349,83.1288 0.0617,63.1218 0.35426,80.966 1.36766,83.4126 0.70906,1.7118 2.75186,4.0163 4.53957,5.1212 1.78771,1.1049 4.78463,2.0088 6.65984,2.0088 1.8752,0 4.52209,-0.7576 5.88196,-1.6837 1.35988,-0.926 8.27989,-6.8885 15.37779,-13.25 7.09791,-6.3614 14.8741,-13.3041 17.28042,-15.428 4.37512,-3.8618 4.37512,-3.8618 16.59471,8.008 6.72078,6.5284 17.16959,15.8296 23.21959,20.6692 6.05,4.8396 14.825,11.4179 19.5,14.6184 4.675,3.2005 12.70664,8.3668 17.84808,11.4808 5.14144,3.1139 12.81329,7.4039 17.04856,9.5334 4.23527,2.1294 13.52863,6.3188 20.65192,9.3097 7.12329,2.9908 18.57644,7.2941 25.45144,9.5627 6.875,2.2687 17,5.2435 22.5,6.6108 5.5,1.3672 14.95,3.3619 21,4.4325 6.05,1.0706 15.95,2.4451 22,3.0544 6.05,0.6093 12.8,1.2513 15,1.4267 2.2,0.1754 9.175,0.3906 15.5,0.4783 6.325,0.088 17.79449,-0.2945 25.48775,-0.8492 z M 245.42425,504.26481 c 8.77762,-0.47571 14.79586,-1.26049 16.13351,-2.10382 1.17344,-0.7398 2.84636,-2.55183 3.7176,-4.02673 0.87124,-1.4749 2.71857,-10.15628 4.10516,-19.29195 1.3866,-9.13568 3.4138,-20.56593 4.50489,-25.40057 1.0911,-4.83463 2.8563,-11.79932 3.92268,-15.47708 1.06638,-3.67776 3.38824,-10.62187 5.15969,-15.43135 1.77145,-4.80948 5.04027,-12.6004 7.26404,-17.31316 2.22377,-4.71276 6.49759,-12.84365 9.49736,-18.06865 2.99978,-5.225 7.97999,-13.1 11.06713,-17.5 3.08715,-4.4 8.81916,-11.825 12.7378,-16.5 3.91864,-4.675 11.347,-12.6463 16.50747,-17.71399 5.16047,-5.0677 13.43267,-12.45881 18.38267,-16.4247 4.95,-3.96589 13.725,-10.34749 19.5,-14.18134 5.775,-3.83384 15.01697,-9.10181 20.53772,-11.70658 5.52074,-2.60478 15.35789,-6.84014 21.86033,-9.41192 6.50243,-2.57178 17.7515,-6.19552 24.99793,-8.05276 7.24643,-1.85723 18.33428,-4.18834 24.63967,-5.18025 8.87754,-1.39654 17.33098,-1.80448 37.46435,-1.80796 20.35316,-0.004 28.38905,0.38759 37,1.80079 6.05,0.99291 16.85,3.30137 24,5.12992 7.15,1.82854 17.5,5.00234 23,7.05288 5.5,2.05055 14.60416,5.89074 20.23146,8.53377 5.62731,2.64303 14.17731,7.18105 19,10.08449 4.8227,2.90344 11.01854,6.8587 13.76854,8.78947 2.75,1.93076 9.05,6.77075 14,10.75553 4.95,3.98477 12.53047,10.52725 16.84548,14.53885 7.84549,7.2938 7.84549,7.2938 -14.32471,26.23143 -12.19361,10.41569 -22.81158,19.85332 -23.59548,20.9725 -0.78391,1.11919 -1.42529,3.10425 -1.42529,4.41125 0,1.307 0.73568,3.92669 1.63484,5.82154 0.89917,1.89485 2.85111,4.07413 4.33765,4.84285 1.48654,0.76872 31.93764,10.19382 67.66913,20.94466 35.73148,10.75084 67.25167,19.98039 70.04486,20.51011 3.32866,0.63127 6.33441,0.61636 8.72336,-0.0433 2.00466,-0.55351 5.20197,-2.37357 7.10514,-4.04458 1.90317,-1.671 3.95687,-4.69554 4.56377,-6.7212 0.77761,-2.59543 1.00273,-27.45986 0.76235,-84.20185 -0.32023,-75.59303 -0.45148,-80.68727 -2.14543,-83.27199 -0.99239,-1.51423 -3.24239,-3.62998 -5,-4.70166 -1.75762,-1.07169 -4.54567,-1.94852 -6.19567,-1.94852 -1.65,0 -4.35,0.83828 -6,1.86285 -1.65,1.02457 -7.5,6.02306 -13,11.10774 -5.5,5.08468 -13.25556,12.16866 -17.23458,15.74217 -7.23457,6.49729 -7.23457,6.49729 -18.5,-4.23472 -6.19598,-5.90257 -16.44042,-14.88204 -22.76542,-19.95435 -6.325,-5.0723 -15.55,-11.93746 -20.5,-15.25592 -4.95,-3.31845 -13.275,-8.62275 -18.5,-11.78732 -5.225,-3.16458 -14.83206,-8.43009 -21.34902,-11.70115 -6.51697,-3.27105 -15.40414,-7.46902 -19.74928,-9.32881 -4.34514,-1.8598 -12.28808,-4.52431 -17.65097,-5.92115 -5.3629,-1.39683 -13.57573,-3.68216 -18.25073,-5.07851 -4.675,-1.39635 -13.28572,-3.64126 -19.13493,-4.98868 -5.84922,-1.34743 -17.77422,-3.4096 -26.5,-4.58262 -12.2692,-1.64936 -21.19142,-2.14228 -39.36507,-2.17476 -16.2046,-0.029 -27.67159,0.47819 -36.93757,1.63367 -7.39066,0.92162 -19.02691,2.82716 -25.85832,4.23453 -6.83141,1.40737 -18.55951,4.30078 -26.06243,6.42979 -7.50292,2.12902 -18.59168,5.7197 -24.64168,7.9793 -6.05,2.25959 -18.65,7.86548 -28,12.45753 -9.56931,4.69976 -23.55649,12.68781 -32,18.27514 -8.25,5.45928 -20.175,14.16162 -26.5,19.33852 -6.325,5.17691 -16.46627,14.36858 -22.53615,20.42593 -6.06988,6.05736 -14.20697,14.83838 -18.08243,19.51338 -3.87546,4.675 -10.70825,13.43678 -15.18399,19.47063 -4.47574,6.03385 -12.21811,17.8011 -17.20526,26.14944 -4.98715,8.34834 -11.91016,21.41155 -15.38447,29.02936 -3.4743,7.61781 -7.94333,18.21124 -9.93118,23.54094 -1.98784,5.3297 -5.17408,15.05785 -7.08053,21.6181 -1.90645,6.56026 -4.59222,17.27459 -5.96838,23.80964 -1.37616,6.53504 -3.17888,17.05689 -4.00606,23.38189 -0.82718,6.325 -1.79531,15.85945 -2.15141,21.18766 -0.64744,9.68767 -0.64744,9.68767 3.91489,14.25 4.56234,4.56234 4.56234,4.56234 20.33865,4.49836 8.67698,-0.0352 22.07632,-0.40541 29.77632,-0.82271 z"
       id="path1" />
  </g>
</svg>
